# xmcd
#
# Track frame offsets: 
#        150
#        8940
#        19774
#        28620
#        41707
#        54009
#        63767
#        73697
#        85509
#        96380
#        106795
#        118667
#        133339
#        147370
#        159082
#        173340
#        189463
#        206524
#        220835
#        247197
#
# Disc length: 3572 seconds
#
# Revision: 2
# Processed by: cddbd v1.5.2PL0 Copyright (c) Steve Scherf et al.
# Submitted via: ExactAudioCopyFreeDBPlugin 1.0
#
DISCID=0b0df214
DTITLE=Various Artist - 100 Instrumentale Klassiekers [CD1)
DYEAR=2008
DGENRE=Instrumental
TTITLE0=THE STRING-A-LONGS - Wheels
TTITLE1=THE VENTURES - Walk don't run
TTITLE2=DUANE EDDY - Because they're young
TTITLE3=THE SHADOWS - Apache
TTITLE4=HENRY MANCINI - Baby elephant walk
TTITLE5=JOHNNY and THE HURRICANES - Red river rock
TTITLE6=B. BUMBLE and THE STINGERS - Bumble boogie
TTITLE7=THE SURFARIS - Wipe out
TTITLE8=SANDY NELSON - Let there be drums
TTITLE9=WHISTLING JACK SMITH - I was kaiser Bill's batman
TTITLE10=MR. BLOE - Groovin' with Mr. Bloe
TTITLE11=JOHN DUMMERS'S FAMOUS MUSIC BAND - Nine by nine
TTITLE12=RUM - Muzette
TTITLE13=LES PAUL - Nola
TTITLE14=ANTON KARAS - Harry Lime theme
TTITLE15=MIKIS THEODORAKIS - Zorba's dance
TTITLE16=LOS INCAS - El condor pasa
TTITLE17=LOS INDIOS TABAJARAS - Maria Helena
TTITLE18=STAN GETZ and CHARLIE BYRD - Desafinado
TTITLE19=TOOTS THIELEMANS - Bluesette
EXTD=
EXTT0=
EXTT1=
EXTT2=
EXTT3=
EXTT4=
EXTT5=
EXTT6=
EXTT7=
EXTT8=
EXTT9=
EXTT10=
EXTT11=
EXTT12=
EXTT13=
EXTT14=
EXTT15=
EXTT16=
EXTT17=
EXTT18=
EXTT19=
PLAYORDER=
